<?xml version="1.0" encoding="UTF-8" standalone="no"?>
<!-- Created with Inkscape (http://www.inkscape.org/) -->

<svg
   width="200"
   height="200"
   viewBox="0 0 200 200"
   version="1.1"
   id="svg1"
   xml:space="preserve"
   inkscape:version="1.3 (0e150ed6c4, 2023-07-21)"
   sodipodi:docname="dibujo.svg"
   xmlns:inkscape="http://www.inkscape.org/namespaces/inkscape"
   xmlns:sodipodi="http://sodipodi.sourceforge.net/DTD/sodipodi-0.dtd"
   xmlns="http://www.w3.org/2000/svg"
   xmlns:svg="http://www.w3.org/2000/svg"><sodipodi:namedview
     id="namedview1"
     pagecolor="#ffffff"
     bordercolor="#666666"
     borderopacity="1.0"
     inkscape:showpageshadow="2"
     inkscape:pageopacity="0.0"
     inkscape:pagecheckerboard="0"
     inkscape:deskcolor="#d1d1d1"
     inkscape:document-units="mm"
     inkscape:zoom="0.69397446"
     inkscape:cx="56.918521"
     inkscape:cy="373.93307"
     inkscape:window-width="1920"
     inkscape:window-height="1017"
     inkscape:window-x="-8"
     inkscape:window-y="-8"
     inkscape:window-maximized="1"
     inkscape:current-layer="layer1"
     showgrid="false" /><defs
     id="defs1" /><g
     inkscape:label="Capa 1"
     inkscape:groupmode="layer"
     id="layer1"><path
       style="fill:#0d75be;fill-opacity:1;stroke-width:0.399901"
       d="m 147.16983,178.95178 -0.0496,-0.0496 -3.37532,-0.0181 -3.37538,-0.0181 -13.39074,-13.43001 -13.39073,-13.43001 -4.12224,-4.09384 -4.12225,-4.09383 -21.615375,-21.6203 -21.615362,-21.62029 v -0.0831 -0.0831 l 2.404663,-2.473612 2.404663,-2.473615 2.066294,-2.063243 2.066283,-2.063243 5.131057,-5.079264 C 96.110373,66.444551 116.52598,47.168585 136.13733,27.064945 l 3.50393,-3.549516 0.48676,-0.555027 0.48673,-0.555027 0.35637,-0.555952 0.35634,-0.555948 0.17878,-0.147308 0.17873,-0.147309 16.52987,-0.04426 16.52987,-0.04426 0.54075,0.06506 0.54075,0.06507 -0.0924,0.496812 -0.0924,0.496812 -0.37063,0.781468 -0.37062,0.781468 -3.25194,3.185925 -3.25199,3.185932 -8.46457,8.411626 -8.46458,8.411632 -17.03496,17.042013 -17.03496,17.042026 -9.44332,9.496538 -9.443291,9.496526 v 0.146384 0.1464 l 0.44968,0.46215 0.449681,0.46216 1.4284,1.36126 1.4284,1.36127 20.47371,20.43854 20.47371,20.43856 4.41153,4.43326 4.41155,4.43327 7.28016,7.25156 7.28013,7.25154 3.43876,3.36654 3.43875,3.36652 0.66014,0.75619 0.66018,0.75621 0.3726,0.74065 0.37259,0.74064 0.064,0.48659 0.0639,0.48659 -0.19734,0.0953 -0.19739,0.0954 -14.02715,0.0275 -14.0272,0.0275 z"
       id="path2" /><path
       style="fill:#000000;fill-opacity:1;stroke-width:0.399901"
       d="m 66.239359,184.63973 -0.793549,-0.031 -1.851629,-0.16377 -1.851629,-0.16378 -1.428402,-0.15683 -1.42839,-0.15683 -2.116149,-0.43084 -2.116138,-0.43085 -1.470993,-0.41647 -1.470982,-0.41647 -0.698062,-0.27395 -0.698062,-0.27397 -1.064856,-0.50797 -1.064845,-0.50798 -0.945492,-0.63481 -0.94548,-0.6348 -0.930351,-0.84087 -0.930351,-0.84087 -0.794976,-0.87941 -0.794976,-0.87939 -0.56003,-0.80122 -0.560041,-0.80122 -0.380323,-0.68773 -0.380322,-0.68776 -0.468825,-1.21678 -0.468824,-1.21679 -0.270241,-1.11097 -0.27024,-1.11098 -0.160238,-0.85293 -0.160239,-0.85291 -0.159396,-1.52774 -0.159403,-1.52774 -0.06135,-1.58711 -0.06135,-1.58711 -0.04816,-20.20918 -0.04816,-20.20919 -0.107686,-2.05108 -0.10768,-2.05111 -0.108889,-0.69988 -0.108888,-0.6999 -0.212514,-0.6481 -0.212514,-0.64811 -0.372404,-0.62159 -0.372405,-0.62158 -0.496272,-0.51068 -0.496267,-0.51069 -0.687747,-0.40315 -0.687746,-0.40315 -0.899363,-0.29532 -0.899362,-0.29533 -1.389794,-0.0228 -1.389795,-0.0228 -0.773321,-0.24407 -0.77332,-0.24405 -0.852392,-0.42951 -0.852392,-0.4295 -0.477191,-0.36185 -0.47719,-0.36185 -0.397806,-0.48359 -0.397805,-0.48357 -0.204991,-0.42322 -0.204992,-0.42324 -0.16871,-0.63484 -0.168714,-0.63485 -0.07749,-1.49318 -0.07749,-1.49319 0.07259,-2.792007 0.07259,-2.792005 0.172262,-0.814711 0.172262,-0.814723 0.149244,-0.357188 0.149243,-0.357187 0.488627,-0.543462 0.488624,-0.543473 0.748432,-0.497564 0.748428,-0.497551 0.858917,-0.292517 0.858918,-0.292504 1.428398,-0.117984 1.428397,-0.117983 0.899363,-0.161864 0.899362,-0.161851 0.656037,-0.312472 0.656039,-0.312484 0.832749,-0.617438 0.832742,-0.61745 0.385288,-0.470193 0.385283,-0.470182 0.329569,-0.704281 0.329573,-0.704269 0.157569,-0.823924 0.15757,-0.823923 0.09097,-4.761327 0.09097,-4.761327 0.01156,-18.886593 0.01156,-18.886596 0.096,-1.391068 0.096,-1.391072 0.222841,-1.201205 0.222841,-1.201209 0.320139,-1.216781 0.320134,-1.216786 0.431894,-1.110975 0.431895,-1.110975 0.474822,-0.899363 0.474812,-0.899362 0.3378,-0.529035 0.337788,-0.529034 0.640097,-0.793557 0.640086,-0.793552 0.990775,-0.955942 0.990788,-0.955944 0.992063,-0.708301 0.992064,-0.708297 1.124074,-0.574714 1.124074,-0.574714 1.05808,-0.419705 1.058069,-0.419705 0.899362,-0.27266 0.899361,-0.272664 1.428402,-0.31615 1.428401,-0.316149 1.481308,-0.223251 1.481285,-0.22325 1.481308,-0.148562 1.481296,-0.148563 3.967767,-0.124412 3.967779,-0.124408 3.36721,0.05709 3.367222,0.0571 0.05024,0.05024 0.05025,0.05025 0.06476,8.836449 0.06477,8.836442 -0.889952,0.06542 -0.889952,0.06542 -2.169044,0.154149 -2.169055,0.154153 -1.216788,0.208954 -1.216776,0.208957 -1.322589,0.38408 -1.322589,0.384081 -0.791844,0.315989 -0.791843,0.31599 -0.848172,0.566337 -0.848172,0.566336 -0.815535,0.828904 -0.815524,0.828904 -0.360853,0.477971 -0.360854,0.477966 -0.343427,0.680322 -0.343416,0.680319 -0.154031,0.42882 -0.154032,0.42882 -0.224121,0.793556 -0.224121,0.793553 -0.07132,18.992401 -0.07132,18.99239 -0.11955,1.481308 -0.11955,1.481297 -0.215999,1.492388 -0.216,1.492376 -0.261387,0.976726 -0.261388,0.976713 -0.481622,1.234157 -0.481621,1.234156 -0.575658,1.089604 -0.575659,1.089615 -0.567815,0.762014 -0.567803,0.762014 -0.781645,0.748288 -0.781633,0.748289 -0.646699,0.436071 -0.646699,0.436083 -0.834597,0.420222 -0.834609,0.420223 -0.952581,0.41861 -0.952581,0.418621 -0.881378,0.292342 -0.881366,0.292343 -0.05596,0.145829 -0.05596,0.145817 0.123251,0.148499 0.123239,0.1485 0.920211,0.37343 0.920211,0.37342 1.076307,0.47243 1.076308,0.47243 0.775321,0.4501 0.775322,0.45008 0.605789,0.46293 0.605813,0.46293 0.835247,0.84088 0.835259,0.84089 0.596089,0.88668 0.59609,0.88667 0.678269,1.41602 0.67828,1.41601 0.268152,0.89935 0.268163,0.89937 0.166376,0.89616 0.166388,0.89616 0.213285,1.69611 0.213284,1.69613 0.112078,2.27484 0.112078,2.27487 0.03219,16.22991 0.03218,16.22992 0.06859,1.17538 0.0686,1.17536 0.111719,0.79357 0.111718,0.79354 0.294477,0.80758 0.294466,0.80758 0.429353,0.72662 0.429342,0.72664 0.48016,0.60415 0.480171,0.60415 0.874684,0.74917 0.874695,0.74917 1.375495,0.67584 1.375495,0.67584 0.846455,0.26134 0.846455,0.26135 1.058081,0.22863 1.058069,0.22865 1.058069,0.15492 1.05808,0.15494 2.565818,0.0668 2.56583,0.0668 -0.0012,8.36885 -0.0012,8.36886 -0.06746,0.7142 -0.06744,0.7142 -5.195716,-0.0211 -5.195704,-0.0211 z"
       id="path1" /></g></svg>
