<?xml version="1.0" encoding="UTF-8" standalone="no"?>
<!-- Created with Inkscape (http://www.inkscape.org/) -->

<svg
   width="50"
   height="50"
   viewBox="0 0 50 50"
   version="1.1"
   id="svg1"
   xml:space="preserve"
   inkscape:version="1.3 (0e150ed6c4, 2023-07-21)"
   sodipodi:docname="dibujo-1.svg"
   xmlns:inkscape="http://www.inkscape.org/namespaces/inkscape"
   xmlns:sodipodi="http://sodipodi.sourceforge.net/DTD/sodipodi-0.dtd"
   xmlns="http://www.w3.org/2000/svg"
   xmlns:svg="http://www.w3.org/2000/svg"><sodipodi:namedview
     id="namedview1"
     pagecolor="#ffffff"
     bordercolor="#666666"
     borderopacity="1.0"
     inkscape:showpageshadow="2"
     inkscape:pageopacity="0.0"
     inkscape:pagecheckerboard="0"
     inkscape:deskcolor="#d1d1d1"
     inkscape:document-units="mm"
     inkscape:zoom="5.5517957"
     inkscape:cx="27.108346"
     inkscape:cy="63.853214"
     inkscape:window-width="1920"
     inkscape:window-height="1017"
     inkscape:window-x="-8"
     inkscape:window-y="-8"
     inkscape:window-maximized="1"
     inkscape:current-layer="layer1" /><defs
     id="defs1" /><g
     inkscape:label="Capa 1"
     inkscape:groupmode="layer"
     id="layer1"><path
       style="fill:#000000;stroke-width:0.761622"
       d="m 12.156033,47.418231 c -0.36465,-0.364663 -0.290423,-1.694574 0.141597,-2.537001 0.81342,-1.586136 2.077767,-2.258978 4.244888,-2.258978 h 1.417057 V 40.506377 38.390501 H 9.9022796 1.8449855 L 1.1868925,37.802495 0.52879996,37.21449 V 23.478623 9.7427579 L 1.1868925,9.1547516 1.8449855,8.5667461 H 19.616589 37.388188 l 2.838025,-2.8138337 c 2.952617,-2.9274543 3.709432,-3.4330339 5.138968,-3.4330339 3.592357,0 5.437072,4.2930117 2.99487,6.9696501 -0.36841,0.4037681 -0.385515,0.9682014 -0.429825,14.1727394 l -0.04614,13.752224 -0.658091,0.588004 -0.658095,0.588005 h -8.057297 -8.057294 v 2.115876 2.115875 h 1.417054 c 2.16712,0 3.43147,0.672842 4.244888,2.258978 0.43202,0.842427 0.506248,2.172355 0.141606,2.537001 -0.349187,0.349187 -23.75163,0.349187 -24.100812,0 z M 33.615878,45.13478 33.05049,44.63737 H 24.206441 15.362395 L 14.797,45.13478 14.231606,45.632194 h 9.974835 9.974833 z m -5.278443,-4.628403 v -2.015121 h -4.130994 -4.130995 l -0.05872,1.797659 c -0.0323,0.988715 -0.01173,1.920071 0.0457,2.069687 0.08386,0.218537 0.908026,0.2613 4.189723,0.217478 l 4.085336,-0.05457 z m 17.632283,-5.138553 v -1.00756 H 24.206441 2.4431632 v 1.00756 1.007558 H 24.206441 45.969718 Z m -0.0485,-13.249405 c 0.02891,-5.569284 -0.01711,-10.125971 -0.101857,-10.125971 -0.284961,0 -13.883272,13.797869 -14.100425,14.307342 -0.804651,1.887848 -2.755646,3.2215 -5.29586,3.620131 -1.958292,0.307313 -20.2029126,0.277767 -20.5139003,-0.03322 -0.3390948,-0.339094 -0.3009832,-1.080814 0.074843,-1.456643 0.276576,-0.276576 1.2698851,-0.316663 7.8466143,-0.316663 h 7.529956 l 0.135097,-0.95718 c 0.27592,-1.955009 0.699608,-3.690426 1.118614,-4.581807 0.523522,-1.11375 1.897864,-2.367491 2.94043,-2.6824 0.596683,-0.18023 1.776759,-1.242534 5.299928,-4.770999 l 4.532328,-4.539146 H 18.915076 2.4431632 v 10.747299 c 0,5.911014 0.060861,10.808159 0.1352437,10.882543 0.074387,0.07439 9.8451901,0.112169 21.7129021,0.08396 l 21.577652,-0.05128 z m -18.692094,5.457616 c 1.281471,-0.348445 2.29987,-1.214109 2.639705,-2.243805 0.228433,-0.692171 0.224495,-0.699004 -1.257213,-2.180714 -1.449674,-1.44967 -1.50311,-1.481566 -2.164447,-1.291897 -1.81634,0.520918 -2.178156,1.199819 -2.933735,5.504784 l -0.133807,0.762345 1.370588,-0.124676 c 0.75382,-0.06857 1.869326,-0.260289 2.478904,-0.426037 z m 5.899619,-5.86569 1.354792,-1.365255 -1.460954,-1.449709 -1.460953,-1.449708 -1.48477,1.425706 -1.484778,1.425705 1.378615,1.389258 c 0.758238,0.764092 1.474153,1.389258 1.590933,1.389258 0.116778,0 0.821977,-0.614365 1.567115,-1.365255 z M 47.010676,7.7012914 c 1.15834,-1.5914135 -0.278567,-3.7530636 -2.177888,-3.2763633 -0.369632,0.09277 -2.459149,2.0676026 -6.155793,5.8179089 l -5.596231,5.67747 1.453833,1.4636 1.453834,1.463599 5.306154,-5.291513 c 2.91839,-2.910334 5.490627,-5.5449488 5.716091,-5.8547016 z"
       id="path3" /></g></svg>
